Patient4_TMGait_0pt7_02_right_04_EMG.mot
version=1
nRows=36
nColumns=33
inDegrees=no
endheader
time	1LAddLong	2LGlutMax	3LGlutMed	4LIliopsoas	5LSemiMemb	6LBicFemLong	7LRecFem	8LVastMed	9LVastLat	10LGasMed	11LTibAnt	12lTibPost	13LPeroneusLong	14LSol	15LExtDigLong	16LFlexDigLong	17RAddLong	18RGlutMax	19RGlutMed	20RIliopsoas	21RSemiMemb	22RBicFemLong	23RRecFem	24RVastMed	25RVastLat	26RGasMed	27RTibAnt	28RTibPost	29RPeroneusLong	30RSol	31RExtDigLong	32RFlexDigLong
4.843	0.012665	0.03952	0.1741	0.007782	0.0383	0.12451	0.14496	0.010529	-0.067749	0.12512	0.055389	-0.00412	-0.005341	-0.15228	0.006714	-0.11337	0.057526	-0.11032	0.03479	0.013428	-0.013733	0.0354	-0.089722	-0.16312	-0.014343	0.002899	-0.074005	-0.006866	-0.16434	-0.090027	-0.01709	-0.015869
4.844	-0.005798	0.019073	0.092163	0.037231	0.012817	0.10086	0.088043	0.014343	-0.10468	-0.22369	-0.028076	-0.003662	-0.049591	-0.5014	0.027924	0.58075	-0.003967	-0.094147	0.014191	-0.033112	0.020599	0.06424	0.042725	-0.10635	-0.007935	0.008545	-0.18173	-0.001526	-0.1358	-0.002441	-0.016174	-0.009613
4.845	-0.002899	-0.006256	-0.023804	0.036316	0.010223	0.090179	0.1149	0.014648	-0.11993	0.089417	-0.011597	-0.010681	0.009308	-0.39444	0.06012	0.23407	-0.058594	-0.12085	-0.18097	-0.010223	-0.007324	0.075836	0.13229	-0.041351	-0.00473	-0.002289	-0.07843	-0.004578	0.016479	0.023804	-0.01297	-0.007172
4.846	0.00473	0.02121	-0.001831	0.039368	0.00946	0.1506	-0.034027	0.014191	-0.036163	0.10773	0.036011	0.003967	-0.028229	-0.061035	0.001678	0.006409	-0.10407	-0.083008	-0.45822	-0.025024	-0.039063	0.10849	0.21103	0.004425	-0.011139	-0.007324	0.007477	-0.005188	0.011749	0.045319	-0.013733	-0.006409
4.847	0.00824	0.027771	0.064087	0.005493	0.014038	0.062866	-0.1149	0.003204	0.13321	-0.037231	0.02182	0.004272	0.11169	0.17838	-0.00885	-0.049133	-0.077209	-0.088043	-0.51331	-0.031128	-0.016327	0.10361	0.25864	0.007782	0.015869	-0.005798	0.014954	-0.001831	-0.03006	0.067291	-0.015564	-0.002136
4.848	0.019379	0.054016	0.037994	-0.001068	0.02182	0.11749	-0.01709	-0.026398	0.23895	-0.13062	0.010223	0.020905	0.35233	-0.086975	0.010376	-0.031738	-0.062714	-0.009766	-0.42221	-0.035858	-0.005341	0.075073	0.28015	0.10941	0.017548	0.000763	0.024109	-0.003662	-0.047455	0.065002	-0.013733	-0.000916
4.849	0.001526	-0.0177	0.007629	-0.019989	0.01297	0.059814	0.10513	-0.007935	0.096741	-0.13168	-0.011902	0.012207	0.12131	-0.17914	0.050354	-0.042572	-0.05661	-0.026245	0.25971	-0.09964	0.000458	0.040283	0.28198	0.064392	0.022583	-0.001221	0.015564	-0.001221	0.010681	0.025787	-0.012665	0.002289
4.85	0.036469	-0.17136	-0.059967	-0.026703	0.01236	-0.056915	0.14954	-0.00061	0.11932	-0.03418	-0.014801	0.009003	-0.27573	-0.24872	0.034943	-0.045013	-0.048828	-0.035858	1.1014	-0.093384	0.013428	0.019379	0.17807	0.03418	0.029755	-0.004272	-0.081787	0.004272	0.224	-0.025787	-0.009613	0.007324
4.851	0.007019	-0.13596	0.080109	-0.026855	0.009918	-0.001526	0.13534	0.000916	0.15839	-0.033875	-0.00946	0.013733	-0.15015	-0.6633	-0.028839	-0.043488	-0.039063	-0.068207	0.23285	-0.034485	0.006561	0.068512	0.1506	0.033264	0.028687	-0.003052	-0.1265	-0.001373	0.40863	-0.054932	-0.016327	0.001373
4.852	0.011139	-0.099335	0.035706	-0.00061	0.008392	-0.026245	0.14572	-0.006409	0.11963	-0.25986	-0.005646	0.012817	-0.01709	-0.45731	0.00061	-0.054321	-0.032806	-0.18158	-0.069427	0.014954	-0.051422	0.10483	0.12604	0.027771	0.052338	0.007019	0.073395	-0.002441	0.26916	-0.093689	-0.011597	-0.005341
4.853	-0.00885	-0.11322	-0.011444	0.036469	0.015869	0.043793	0.15518	0.00824	0.093536	-0.32379	0.011749	0.015564	0.055084	0.036163	0.040741	-0.050659	-0.010986	-0.18295	0.11658	0.040283	-0.066528	0.095673	0.027771	0.027924	0.040588	0.007477	-0.014648	-0.001984	-0.057831	-0.11795	-0.010681	0.005035
4.854	-0.001984	-0.1265	-0.074615	0.027924	-0.009308	0.13199	0.12116	0.010223	0.075073	-0.24506	0.010376	0.016022	0.059052	-0.056305	-0.001373	-0.041199	-0.00061	-0.22324	-0.25894	0.027161	-0.032196	0.062103	-0.000153	-0.007477	0.021667	0.001373	-0.2626	-0.003357	-0.09201	-0.077972	-0.010071	-0.001984
4.855	-0.001678	-0.12283	-0.047302	0.000458	-0.019836	0.12894	0.088196	0.018921	0.056305	-0.1886	-0.01358	0.00824	0.13123	-0.06485	-0.020447	-0.01236	0.006409	-0.1741	-0.36819	0.012817	-0.025482	0.03067	-0.009918	-0.031433	0.029449	0.002899	-0.2034	-0.001984	-0.36316	-0.05249	-0.015259	-0.000153
4.856	0.005493	-0.10315	-0.028229	0.001831	-0.028381	0.13458	-0.042877	0.011139	0.067596	-0.17395	-0.008545	0.009155	-0.159	0.24094	0.00473	-0.013123	-0.009308	-0.13062	-0.39856	0.033264	-0.13977	0.00824	-0.10574	-0.065765	0.022583	-0.000153	0.085754	-0.009613	-0.087585	-0.007019	-0.010834	0.003357
4.857	0.01236	-0.068054	-0.025787	0.011597	0.001831	0.30365	0.00885	-0.013885	0.095367	-0.10895	-0.028687	-0.005646	-0.005493	0.35996	0.025482	-0.009766	-0.015106	-0.17792	-0.4007	-0.020447	-0.31586	-0.024414	-0.068054	-0.066986	0.016022	0.00824	0.45319	-0.001221	0.14481	-0.011444	-0.011292	-0.000305
4.858	-0.00885	-0.08728	-0.062103	0.001221	0.017853	0.38193	0.14374	-0.00351	0.02121	-0.092926	0.036926	0.00351	0.10666	0.47867	0.032501	0.013123	0.007019	-0.14313	-0.41428	-0.034943	-0.16785	0.035706	-0.013733	-0.065002	0.010529	0.006866	0.57266	-0.010071	0.072479	0.007477	-0.014191	0.006256
4.859	-0.001526	-0.11917	-0.097351	-0.007629	0.010529	0.46432	0.20309	-0.00061	-0.024414	-0.062561	0.14206	0.014038	0.25528	0.46738	0.047607	0.018463	-0.015411	-0.15915	-0.5838	-0.06134	0.40451	0.13931	0.043945	-0.006409	0.033569	-0.003967	0.50217	-0.00885	-0.006866	0.049591	-0.011444	-0.009308
4.86	-0.003357	-0.10513	-0.068817	-0.007019	0.000153	0.27969	0.19455	0.006866	-0.022736	-0.065308	0.2272	0.003357	0.11566	0.21668	0.030823	0.009155	-0.038452	-0.13825	-0.43671	-0.013733	0.30579	0.10101	0.028381	0.066986	0.06073	-0.010376	0.35263	-0.001831	0.041199	0.00473	-0.005493	-0.007629
4.861	0.000458	-0.053406	0.01297	0.007172	-0.011749	0.2684	0.16281	0	0.024414	-0.079498	0.21362	0.008545	-0.11566	0.15121	0.14877	0.005798	-0.032043	-0.11948	-0.43411	0.035095	0.040283	0.062866	0.10803	0.04364	0.036926	-0.003052	-0.007782	-0.001831	-0.04776	-0.062103	-0.012665	-0.000916
4.862	-0.001678	-0.028229	0.074158	0.01297	-0.007172	0.11536	0.11093	0.00412	0.025482	-0.15961	-0.16525	0.008087	0.13245	0.18082	0.098114	0.010834	-0.00885	-0.05722	-0.495	0.093536	0.073395	0.025177	0.1152	0.05188	0.022278	0.005646	-0.44006	-0.005188	0.25223	-0.12817	-0.006409	-0.001984
4.863	0.009766	-0.010071	0.10696	0.001831	0.027161	-0.42328	-0.005188	0.005341	0.054626	-0.16968	-0.16281	-0.001221	0.031891	0.22537	-0.052338	0.002289	0.018158	-0.072327	-0.43625	0.023041	0.08728	0.029449	0.10971	0.029144	0.023041	0.015717	-0.50262	-0.00412	-0.6842	-0.17288	-0.011444	0.005951
4.864	0.017395	-0.00473	0.024261	-0.009155	0.055542	-0.56503	-0.001526	-0.002441	0.065002	-0.1413	-0.083313	0.012817	-0.58227	0.30762	0.35934	-0.005646	0.029449	-0.10895	-0.40131	-0.050964	-0.002899	0.047455	0.19592	-0.045624	0.027771	0.009308	-0.35675	-0.00061	-0.55039	-0.082092	-0.005951	0.006714
4.865	0.000305	-0.041809	-0.059814	-0.005798	0.036926	-0.52307	0.02655	-0.006256	0.089111	-0.083771	-0.080872	0.01297	-0.50522	0.25589	0.099335	-0.007477	0.029602	-0.10864	-0.26581	-0.041809	0.075836	0.046539	0.15656	-0.021667	0.022583	-0.007019	-0.18967	-0.002899	0.29907	0.050354	0.004578	0.006714
4.866	0.00412	0.013733	-0.093994	-0.021667	0.018311	-0.29526	0.035858	-0.002136	0.10635	-0.064087	-0.090637	0.008087	0.11673	0.13367	0.20386	-0.002594	0.00412	-0.082855	0.06012	-0.021057	0.065002	0.045319	0.20294	0.001678	0.047302	-0.006714	0.010071	-0.006104	0.57327	0.059662	-0.007935	0.008698
4.867	0	0.012512	-0.031433	-0.009613	0	0.007629	0.073395	-0.000916	0.043182	-0.032349	-0.18402	0.006714	0.34058	0.15457	-0.48462	-0.001984	0.005188	-0.029907	0.019073	0.004272	-0.048676	0.045929	0.17136	-0.011444	0.019684	-0.008545	0.12711	-0.005493	0.59113	0.012817	-0.011597	0.010529
4.868	0.000458	0.018616	-0.025024	0.007324	-0.03006	0.040741	0.082092	0.000305	0.055389	-0.013275	0.005951	0.003204	0.93842	0.025787	-0.41992	-0.009003	0.013275	-0.003204	-0.2977	0.028076	0.01297	0.044708	0.16052	-0.036011	0.025024	-0.003662	0.082397	-0.010986	0.13351	0.010223	-0.005188	0.011749
4.869	-0.000458	0.038757	-0.025177	0.016937	-0.046082	-0.033417	0.097809	0.007782	0.068359	-0.018616	0.3241	0.005035	0.82565	-0.007935	-0.53268	-0.002441	0.011597	-0.011902	-0.16159	-0.011902	0.007019	0.11276	0.09552	-0.025482	0.017853	-0.011597	0.067749	-0.002747	-0.51224	0.012512	-0.002747	0.009308
4.87	-0.00412	0.025635	-0.00412	0.007629	-0.022278	-0.02243	0.10574	-0.000305	0.053253	-0.02533	0.3302	0.008392	0.38818	0.11353	0.20081	-0.015259	-0.001526	-0.009003	-0.067749	-0.015717	-0.10727	0.17029	0.015259	-0.009766	0.021362	-0.010681	0.088654	-0.005188	-0.37994	-0.008392	-0.007935	0.00412
4.871	0.006104	0.018616	0.00824	0.006409	0.054169	0.000763	0.080109	0.019073	0.048981	-0.068054	0.15137	0.015717	-0.03418	0.19913	-0.00824	-0.005341	0.005951	-0.037231	-0.21774	0.000458	-0.20905	0.2211	-0.049133	-0.058289	0.009918	0.000763	0.073547	-0.008698	-0.11032	0.039215	-0.009613	0.002747
4.872	0.011292	0.026398	-0.011292	-0.000763	0.04425	0.005188	0.10391	0.028534	0.078278	-0.085297	-0.048065	0.001831	-0.51926	0.099182	-0.37094	-0.009766	-0.001221	-0.020294	-0.47257	0.001373	-0.088196	0.31342	-0.13962	-0.008545	0.01358	-0.00061	0.10529	-0.002747	-0.050964	0.050659	-0.005951	0.005798
4.873	0.011292	-0.013885	-0.008698	-0.004883	0.006409	-0.020447	0.10056	-0.018158	0.088806	-0.027771	-0.21133	0.002747	-0.46799	-0.099487	-0.26047	-0.009613	0.016937	-0.003662	-0.82123	0.004578	0.074615	0.26413	-0.20218	0.007935	-0.001068	-0.005188	0.17273	-0.009918	-0.088806	-0.004272	-0.007019	0.002289
4.874	-0.000153	0.020142	0.010223	-0.010834	-0.007629	-0.026398	0.11963	-0.002899	0.062256	-0.015259	-0.29251	0.00351	-0.15335	-0.46081	-0.31509	-0.015259	0.044556	0.058289	-0.79361	0.011139	0.033569	0.097809	-0.12863	-0.079346	-0.007019	-0.002594	0.1561	-0.003967	-0.072937	-0.019073	-0.005798	-0.000305
4.875	0.00351	0.039825	0.039978	-0.023651	0.020447	-0.046082	0.13275	0.010834	0.06485	-0.03418	-0.15213	0.009308	-0.16907	-0.42313	-0.15366	-0.019531	0.055695	0.074005	-0.40314	-0.007935	-0.025635	-0.077362	-0.082397	-0.10559	0.007324	-0.010986	0.1181	-0.000458	-0.12253	-0.018158	-0.007935	-0.004578
4.876	0.004578	0.050201	0.020752	-0.001068	0.052795	-0.0914	0.13565	0.002594	0.074463	-0.043793	-0.050507	0.007782	-0.28137	-0.20828	0.081177	0.003815	0.01709	0.099335	0.38162	-0.044403	-0.024109	-0.070038	-0.033264	-0.081787	0.017395	-0.015564	0.019684	-0.002289	-0.044403	-0.03479	-0.002594	0.00412
4.877	0.007019	-0.011139	-0.002747	0.024872	0.045471	-0.063629	0.13565	-0.000153	0.089111	-0.016327	-0.042419	0.007629	0.23895	-0.059662	0.13748	0.000458	-0.011139	-0.048828	0.53604	-0.013733	-0.01358	-0.010986	-0.0354	-0.006714	0.032196	-0.010071	-0.25757	-0.003967	0.12405	-0.065308	-0.002289	-0.00061
4.878	0.000916	-0.016937	-0.044708	0.019684	0.023193	-0.001984	0.11536	0.000916	0.10742	-0.006866	-0.093079	0.006104	0.42633	-0.002594	-0.044098	0.009308	-0.01709	-0.15839	0.06012	0.021667	-0.092163	0.033569	-0.012054	0.002441	0.015717	-0.011139	-0.20294	-0.007477	0.15259	-0.072784	-0.001068	-0.002289
